<svg version="1.0" xmlns="http://www.w3.org/2000/svg"
 width="200.000000pt" height="104.000000pt" viewBox="0 0 200.000000 104.000000"
 preserveAspectRatio="xMidYMid meet">

<g transform="translate(0.000000,104.000000) scale(0.100000,-0.100000)"
fill="#000000" stroke="none">
<path d="M770 521 l0 -481 65 0 65 0 0 200 0 200 95 0 c178 0 256 35 302 137
71 155 18 335 -117 397 -39 17 -70 21 -227 24 l-183 4 0 -481z m365 337 c83
-38 86 -235 5 -275 -15 -8 -67 -13 -132 -13 l-108 0 0 150 0 150 105 0 c59 0
115 -5 130 -12z"/>
<path d="M240 768 c-144 -170 -190 -229 -190 -250 0 -20 37 -71 151 -205 241
-283 250 -291 297 -257 47 32 33 57 -147 265 l-169 196 169 197 c174 203 187
226 151 259 -46 42 -60 31 -262 -205z"/>
<path d="M1498 979 c-11 -6 -18 -22 -18 -38 0 -22 36 -71 165 -222 90 -107
165 -197 165 -200 0 -4 -74 -94 -165 -200 -172 -203 -186 -227 -147 -262 44
-40 60 -27 301 256 114 134 151 185 151 205 0 21 -46 80 -190 250 -163 189
-195 222 -218 222 -15 0 -35 -5 -44 -11z"/>
</g>
</svg>